<svg xmlns="http://www.w3.org/2000/svg" xmlns:xlink="http://www.w3.org/1999/xlink" width="225" height="34.22" viewBox="0 0 225 34.22">
  <defs>
    <clipPath id="clip-path">
      <rect id="Rectangle_201" data-name="Rectangle 201" width="225" height="34.22" fill="none"/>
    </clipPath>
  </defs>
  <g id="Group_3058" data-name="Group 3058" transform="translate(0 0)">
    <path id="Path_2897" data-name="Path 2897" d="M84.569.757V26.134h16.337V21.605H90.491V15.562h7.977V11.207H90.491V5.286h10.416V.757Z" transform="translate(-46.881 -0.419)" fill="#35328c"/>
    <g id="Group_3057" data-name="Group 3057" transform="translate(0 0)">
      <g id="Group_3056" data-name="Group 3056" clip-path="url(#clip-path)">
        <path id="Path_2898" data-name="Path 2898" d="M126.671,26.074V.757h9.314a17.7,17.7,0,0,1,4.466.487,8.517,8.517,0,0,1,3.006,1.372,5.208,5.208,0,0,1,1.694,2.155,7.277,7.277,0,0,1,.53,2.832,5.55,5.55,0,0,1-.243,1.642,4.836,4.836,0,0,1-.764,1.486,5.717,5.717,0,0,1-1.338,1.26,8.63,8.63,0,0,1-1.963.981,6.976,6.976,0,0,1,3.7,1.972,5.111,5.111,0,0,1,1.2,3.5,7.237,7.237,0,0,1-.625,3.006,6.891,6.891,0,0,1-1.833,2.424,8.689,8.689,0,0,1-2.98,1.616,12.965,12.965,0,0,1-4.049.582Zm5.873-14.665H135.6a10.029,10.029,0,0,0,1.755-.14,3.628,3.628,0,0,0,1.329-.486,2.231,2.231,0,0,0,.834-.956,3.583,3.583,0,0,0,.287-1.529,4.3,4.3,0,0,0-.226-1.5,2.158,2.158,0,0,0-.695-.965,2.927,2.927,0,0,0-1.19-.521,8.176,8.176,0,0,0-1.712-.156h-3.44Zm0,3.927v6.308h4.135a5.188,5.188,0,0,0,1.9-.3,3.006,3.006,0,0,0,1.156-.765,2.57,2.57,0,0,0,.573-1.059,4.663,4.663,0,0,0,.156-1.2,4.007,4.007,0,0,0-.182-1.252,2.073,2.073,0,0,0-.625-.938,3.064,3.064,0,0,0-1.173-.591,6.836,6.836,0,0,0-1.842-.209Z" transform="translate(-70.21 -0.42)" fill="#35328c"/>
        <path id="Path_2899" data-name="Path 2899" d="M196.882,26.074h-4.553a2.1,2.1,0,0,1-1.259-.356,1.836,1.836,0,0,1-.687-.912l-1.494-4.414h-9.627l-1.495,4.414a2.013,2.013,0,0,1-1.911,1.269h-4.587l9.8-25.317h6.012ZM180.617,16.4h6.916L185.2,9.463q-.226-.66-.53-1.555t-.6-1.938q-.278,1.06-.573,1.964T182.946,9.5Z" transform="translate(-94.929 -0.42)" fill="#35328c"/>
        <path id="Path_2900" data-name="Path 2900" d="M241.369.757V5.414h-7.124V26.075h-5.873V5.414h-7.125V.757Z" transform="translate(-122.631 -0.42)" fill="#35328c"/>
        <path id="Path_2901" data-name="Path 2901" d="M286.2.757V5.275H275.808v5.908h7.958v4.345h-7.958v6.029H286.2v4.518H269.9V.757Z" transform="translate(-149.597 -0.42)" fill="#35328c"/>
        <path id="Path_2902" data-name="Path 2902" d="M32.216,4.236a13.449,13.449,0,0,0-9.453-3.8H12.686V17.488h3.9a2.2,2.2,0,0,0,2.186-2.1V5.156h3.99a6.329,6.329,0,0,1,5.331,2.336,9.778,9.778,0,0,1,1.654,5.8c0,3.987-2.07,8.1-7.016,8.1H15.447l-4.77,6.045.24-6.732a8,8,0,0,1-5.506-7.444,6.274,6.274,0,0,1,1.2-3.421,1.812,1.812,0,0,0-.155-2.353L3.3,4.817A12.532,12.532,0,0,0,0,13.258a12.749,12.749,0,0,0,7.147,11.38L7.334,33.3h0c0,.015,0,.029,0,.044v0a1.109,1.109,0,0,0,1.994.67l.008.005,7.59-8.107h5.805a12.546,12.546,0,0,0,13.006-12.6,12.135,12.135,0,0,0-3.523-9.082" transform="translate(0 -0.241)" fill="#35328c"/>
        <path id="Path_2903" data-name="Path 2903" d="M313.85.654a1.635,1.635,0,0,1,.466.129,1.569,1.569,0,0,1,.4.268,4.508,4.508,0,0,1,.432.466L327.1,16.629q-.069-.725-.1-1.407t-.035-1.287V.62H332.1V25.782h-3.039a2.8,2.8,0,0,1-1.14-.207,2.435,2.435,0,0,1-.9-.76L315.162,9.824q.052.657.087,1.287t.034,1.183V25.782h-5.146V.62h3.074a4.934,4.934,0,0,1,.639.034" transform="translate(-171.9 -0.344)" fill="#5a69bf"/>
        <path id="Path_2904" data-name="Path 2904" d="M389.984,12.849a13.519,13.519,0,0,1-.941,5.077,11.994,11.994,0,0,1-6.77,6.8,15.023,15.023,0,0,1-10.7,0,12.007,12.007,0,0,1-6.8-6.8,13.52,13.52,0,0,1-.941-5.077,13.525,13.525,0,0,1,.941-5.078,12.087,12.087,0,0,1,2.66-4.075A12.3,12.3,0,0,1,371.575.984,14.073,14.073,0,0,1,376.928,0a13.9,13.9,0,0,1,5.345.993,12.331,12.331,0,0,1,4.119,2.72,12.147,12.147,0,0,1,2.651,4.075,13.477,13.477,0,0,1,.941,5.06m-5.975,0a10.879,10.879,0,0,0-.484-3.359,7.122,7.122,0,0,0-1.39-2.53,5.992,5.992,0,0,0-2.219-1.589,7.625,7.625,0,0,0-2.988-.553,7.734,7.734,0,0,0-3.013.553,5.98,5.98,0,0,0-2.228,1.589,7.114,7.114,0,0,0-1.39,2.53,10.88,10.88,0,0,0-.484,3.359,10.939,10.939,0,0,0,.484,3.376,7.108,7.108,0,0,0,1.39,2.53,5.9,5.9,0,0,0,2.228,1.58,7.86,7.86,0,0,0,3.013.544,7.749,7.749,0,0,0,2.988-.544,5.912,5.912,0,0,0,2.219-1.58,7.116,7.116,0,0,0,1.39-2.53,10.938,10.938,0,0,0,.484-3.376" transform="translate(-201.665 0)" fill="#5a69bf"/>
        <path id="Path_2905" data-name="Path 2905" d="M422.574.62h4.9a2.216,2.216,0,0,1,1.27.345,1.588,1.588,0,0,1,.665.916l3.454,13.125q.173.639.345,1.364a12.408,12.408,0,0,1,.259,1.52q.172-.812.38-1.529t.4-1.355l4.075-13.125a1.809,1.809,0,0,1,.665-.872A1.975,1.975,0,0,1,440.224.62h1.727A2.171,2.171,0,0,1,443.2.957a1.737,1.737,0,0,1,.682.924l4.041,13.125q.19.605.4,1.287t.363,1.459q.138-.76.285-1.451t.3-1.3l3.454-13.125A1.641,1.641,0,0,1,453.383,1a2.045,2.045,0,0,1,1.244-.38h4.593l-7.771,25.162h-5.285l-4.732-15.595q-.122-.362-.25-.794t-.251-.915q-.121.483-.25.915t-.251.794l-4.8,15.595h-5.285Z" transform="translate(-234.22 -0.344)" fill="#5a69bf"/>
      </g>
    </g>
  </g>
</svg>
