<svg id="Group_4430" data-name="Group 4430" xmlns="http://www.w3.org/2000/svg" xmlns:xlink="http://www.w3.org/1999/xlink" width="88.937" height="20" viewBox="0 0 88.937 20">
  <defs>
    <clipPath id="clip-path">
      <rect id="Rectangle_220" data-name="Rectangle 220" width="88.937" height="20" fill="none"/>
    </clipPath>
  </defs>
  <g id="Group_4429" data-name="Group 4429" clip-path="url(#clip-path)">
    <path id="Path_8925" data-name="Path 8925" d="M33.228,5.758a6,6,0,1,1-8.48,0,6,6,0,0,1,8.48,0M28.993.006a9.994,9.994,0,1,1-.012,0ZM54.215,5.758a6,6,0,1,1-8.48,0,6,6,0,0,1,8.48,0M57.044,2.93A9.986,9.986,0,1,1,49.975,0a10,10,0,0,1,7.069,2.93M4,19.944l1,.048H19.991l-.048-1A3.082,3.082,0,0,0,17,16.047l-1-.047H7L18.989,4l-.047-1A3.014,3.014,0,0,0,15.994.059l-1-.053H0L.048,1A3.1,3.1,0,0,0,2.995,3.95L4,4h9L1,15.988l.048,1A3.054,3.054,0,0,0,4,19.944M72.427,6a4.262,4.262,0,0,1,.486,2l.048,1v7l.047,1a3.065,3.065,0,0,0,2.947,2.947l1,.048V9L77,8a4.38,4.38,0,0,1,.492-2.01A4,4,0,0,1,84.412,6,4.442,4.442,0,0,1,84.9,8l.048,1v7l.047,1a3.056,3.056,0,0,0,2.947,2.947l1,.047V8a8,8,0,0,0-13.99-5.29A8,8,0,0,0,64.475,1.376,5.52,5.52,0,0,0,60.958.006V19.991l1-.048A3.018,3.018,0,0,0,64.907,17l.048-1V9l.048-1a4.362,4.362,0,0,1,.492-2.01A4.011,4.011,0,0,1,72.427,6" fill="#2d8cff" fill-rule="evenodd"/>
  </g>
</svg>
